<?xml version="1.0" encoding="iso-8859-1"?>
<!-- Generator: Adobe Illustrator 16.0.0, SVG Export Plug-In . SVG Version: 6.00 Build 0)  -->
<!DOCTYPE svg PUBLIC "-//W3C//DTD SVG 1.1//EN" "http://www.w3.org/Graphics/SVG/1.1/DTD/svg11.dtd">
<svg version="1.1" id="Capa_1" xmlns="http://www.w3.org/2000/svg" xmlns:xlink="http://www.w3.org/1999/xlink" x="0px" y="0px"
	 width="48.999px" height="48.999px" viewBox="0 0 48.999 48.999" style="enable-background:new 0 0 48.999 48.999;"
	 xml:space="preserve">
<g>
	<path d="M48.152,15.364h-3.539c-0.477,0-0.86,0.385-0.86,0.859v3.29l-0.875,0.906v-0.53c0-0.81-0.058-1.586-0.144-2.345
		l-0.002-0.041H42.73C41.877,9.994,36.982,5.094,29.994,5.094H19.015c-6.988,0-11.881,4.898-12.737,12.408H6.276l-0.002,0.041
		c-0.084,0.759-0.143,1.535-0.143,2.345v0.53l-0.873-0.906v-3.29c0-0.474-0.386-0.859-0.862-0.859H0.86
		c-0.474,0-0.86,0.385-0.86,0.859v3.593c0,0.474,0.386,0.859,0.86,0.859h3.132l2.137,2.222v1.2c-2.38,0.348-4.215,2.377-4.215,4.862
		v5.883c0,0.89,0.254,1.716,0.668,2.438c-0.613,0.16-1.067,0.715-1.067,1.377c0,0.793,0.641,1.432,1.431,1.432h1.292v1.863
		c0,1.08,0.876,1.953,1.955,1.953h4.401c1.081,0,1.958-0.875,1.958-1.953v-1.863H36.45v1.863c0,1.08,0.878,1.953,1.957,1.953h4.399
		c1.082,0,1.955-0.875,1.955-1.953v-1.863h1.291c0.791,0,1.432-0.639,1.432-1.432c0-0.664-0.45-1.217-1.066-1.379
		c0.411-0.721,0.666-1.547,0.666-2.437v-5.883c0-2.479-1.833-4.512-4.215-4.862v-1.2l2.138-2.222h3.136
		c0.474,0,0.856-0.385,0.856-0.859v-3.593C49.008,15.75,48.626,15.364,48.152,15.364z M7.961,35.716
		c-2.062,0-3.738-1.674-3.738-3.739c0-2.063,1.676-3.738,3.738-3.738c2.065,0,3.739,1.676,3.739,3.738
		C11.7,34.044,10.026,35.716,7.961,35.716z M23.575,34.473c0,0.26-0.115,0.506-0.316,0.666c-0.155,0.127-0.346,0.19-0.542,0.19
		c-0.061,0-0.119-0.008-0.179-0.021c-5.158-1.091-9.514-6.584-9.514-12c0-0.448,0.039-0.899,0.124-1.423
		c0.068-0.416,0.426-0.723,0.85-0.723h8.719c0.477,0,0.858,0.386,0.858,0.859V34.473z M26.473,35.313
		c-0.059,0.014-0.117,0.02-0.18,0.02c-0.195,0-0.387-0.066-0.541-0.189c-0.202-0.162-0.318-0.408-0.318-0.668v-12.45
		c0-0.474,0.383-0.859,0.859-0.859h8.719c0.424,0,0.782,0.307,0.852,0.723c0.08,0.523,0.123,0.976,0.123,1.422
		C35.984,28.727,31.629,34.221,26.473,35.313z M9.17,17.503c0.675-4.816,3.503-9.545,9.846-9.545h10.979
		c6.344,0,9.172,4.727,9.851,9.545H9.17z M44.788,31.977c0,2.065-1.672,3.739-3.737,3.739c-2.066,0-3.738-1.674-3.738-3.739
		c0-2.063,1.672-3.738,3.738-3.738C43.116,28.24,44.788,29.914,44.788,31.977z"/>
</g>
<g>
</g>
<g>
</g>
<g>
</g>
<g>
</g>
<g>
</g>
<g>
</g>
<g>
</g>
<g>
</g>
<g>
</g>
<g>
</g>
<g>
</g>
<g>
</g>
<g>
</g>
<g>
</g>
<g>
</g>
</svg>
